<svg width="390" height="844" viewBox="0 0 390 844" fill="none" xmlns="http://www.w3.org/2000/svg">
  <defs>
    <filter id="shadow" x="-20%" y="-20%" width="140%" height="140%"><feDropShadow dx="0" dy="8" stdDeviation="10" flood-color="#10264A" flood-opacity="0.10"/></filter>
    <linearGradient id="hero" x1="28" y1="90" x2="364" y2="236" gradientUnits="userSpaceOnUse"><stop stop-color="#10264A"/><stop offset="1" stop-color="#174275"/></linearGradient>
    <style>
      .h1{font:800 18px Inter,Arial,sans-serif;fill:#10264A}.sub{font:500 11px Inter,Arial,sans-serif;fill:#697586}.tiny{font:700 9px Inter,Arial,sans-serif;fill:#667085;letter-spacing:.4px}.label{font:800 10px Inter,Arial,sans-serif;fill:#667085}.title{font:800 14px Inter,Arial,sans-serif;fill:#101828}.body{font:600 11px Inter,Arial,sans-serif;fill:#344054}.num{font:900 34px Inter,Arial,sans-serif;fill:white}.nav{font:700 9px Inter,Arial,sans-serif;fill:#667085}.navon{font:800 9px Inter,Arial,sans-serif;fill:#C73A3A}.white{fill:white}.red{fill:#C73A3A}.navy{fill:#10264A}.green{fill:#0F8A5F}
    </style>
  </defs>
  <rect width="390" height="844" fill="#F5F7FB"/>
  <rect x="18" y="20" width="354" height="54" rx="20" fill="#fff"/>
  <circle cx="45" cy="47" r="18" fill="#10264A"/><path d="M36 39h18v5H42v4h12v5H42v5h18" stroke="#fff" stroke-width="4"/><path d="M54 39h8v19h-8" stroke="#C73A3A" stroke-width="4"/>
  <text x="72" y="43" class="h1">Spend East</text><text x="72" y="60" class="sub">Canada → China dashboard</text>
  <rect x="288" y="34" width="58" height="24" rx="12" fill="#FEF2F2" stroke="#FECACA"/><text x="300" y="50" style="font:800 10px Inter,Arial,sans-serif;fill:#B42318">SANDBOX</text>

  <rect x="22" y="88" width="346" height="146" rx="26" fill="url(#hero)" filter="url(#shadow)"/>
  <text x="42" y="116" style="font:700 11px Inter,Arial,sans-serif;fill:#C7D7FE">TOTAL SPENDING POWER</text>
  <text x="42" y="157" class="num">$500.00</text><text x="44" y="181" style="font:800 17px Inter,Arial,sans-serif;fill:#fff">¥1,611.50 RMB ready</text>
  <rect x="240" y="111" width="92" height="30" rx="15" fill="#FFFFFF22"/><text x="255" y="130" style="font:800 11px Inter,Arial,sans-serif;fill:#fff">CAD  RMB  All</text>
  <rect x="42" y="197" width="76" height="28" rx="14" fill="#fff"/><text x="57" y="215" style="font:800 11px Inter,Arial,sans-serif;fill:#10264A">Top up</text>
  <rect x="126" y="197" width="82" height="28" rx="14" fill="#FFFFFF22" stroke="#FFFFFF55"/><text x="146" y="215" style="font:800 11px Inter,Arial,sans-serif;fill:#fff">Convert</text>
  <rect x="216" y="197" width="76" height="28" rx="14" fill="#FFFFFF22" stroke="#FFFFFF55"/><text x="235" y="215" style="font:800 11px Inter,Arial,sans-serif;fill:#fff">Details</text>

  <rect x="22" y="248" width="346" height="76" rx="22" fill="#fff" filter="url(#shadow)"/>
  <g transform="translate(34 262)"><circle cx="24" cy="20" r="19" fill="#FEF2F2"/><text x="24" y="26" text-anchor="middle" style="font:900 18px Arial;fill:#C73A3A">⌗</text><text x="24" y="54" text-anchor="middle" class="body">Scan</text></g>
  <g transform="translate(115 262)"><circle cx="24" cy="20" r="19" fill="#EEF4FF"/><text x="24" y="26" text-anchor="middle" style="font:900 17px Arial;fill:#10264A">¥</text><text x="24" y="54" text-anchor="middle" class="body" style="font-size:10px">Pay/Collect</text></g>
  <g transform="translate(210 262)"><circle cx="24" cy="20" r="19" fill="#ECFDF3"/><text x="24" y="26" text-anchor="middle" style="font:900 16px Arial;fill:#0F8A5F">✈</text><text x="24" y="54" text-anchor="middle" class="body">Travel</text></g>
  <g transform="translate(292 262)"><circle cx="24" cy="20" r="19" fill="#FFF7ED"/><text x="24" y="26" text-anchor="middle" style="font:900 16px Arial;fill:#B7791F">▣</text><text x="24" y="54" text-anchor="middle" class="body">Pocket</text></g>

  <rect x="22" y="348" width="346" height="126" rx="22" fill="#fff"/>
  <text x="38" y="376" class="title">Services</text>
  <g class="body">
    <text x="43" y="406">⇄</text><text x="31" y="428">Transfer</text><text x="120" y="406">FX</text><text x="99" y="428">Convert</text><text x="198" y="406">☎</text><text x="177" y="428">Top-up</text><text x="291" y="406">⌂</text><text x="273" y="428">Utilities</text>
    <text x="45" y="454">▤</text><text x="39" y="466">Cards</text><text x="124" y="454">店</text><text x="102" y="466">Merchants</text><text x="202" y="454">★</text><text x="184" y="466">Rewards</text><text x="291" y="454">•••</text><text x="284" y="466">More</text>
  </g>

  <rect x="22" y="488" width="346" height="106" rx="22" fill="#fff"/>
  <text x="38" y="517" class="title">Readiness</text><rect x="292" y="500" width="48" height="22" rx="11" fill="#ECFDF3"/><text x="303" y="515" style="font:800 9px Inter,Arial;fill:#0F8A5F">OK</text>
  <text x="38" y="542" class="body">✓ Demo KYC approved</text><text x="38" y="563" class="body">✓ Sandbox wallet active</text><text x="190" y="542" class="body">✓ CAD bank rail: demo</text><text x="190" y="563" class="body">✓ China QR partner: sandbox</text>
  <rect x="38" y="574" width="302" height="1" fill="#EAECF0"/><text x="38" y="587" class="sub">Clear disclaimer remains, but no developer-facing copy.</text>

  <rect x="22" y="608" width="346" height="116" rx="22" fill="#fff"/>
  <text x="38" y="636" class="title">QR payment preview</text><rect x="266" y="622" width="62" height="62" rx="12" fill="#F2F4F7" stroke="#D0D5DD"/><text x="283" y="658" class="tiny">QR</text>
  <text x="38" y="661" class="body">Shanghai Noodles · ¥88.50</text><text x="38" y="681" class="sub">≈ C$16.54 at 5.35 · balance after ¥1,523.00</text>
  <rect x="38" y="697" width="122" height="24" rx="12" fill="#C73A3A"/><text x="64" y="713" style="font:800 10px Inter,Arial;fill:#fff">Confirm demo</text><rect x="168" y="697" width="112" height="24" rx="12" fill="#F2F4F7"/><text x="193" y="713" style="font:800 10px Inter,Arial;fill:#344054">Edit amount</text>

  <rect x="22" y="738" width="346" height="70" rx="22" fill="#fff"/>
  <text x="38" y="765" class="title">Recent activity</text><circle cx="43" cy="786" r="10" fill="#EEF4FF"/><text x="60" y="790" class="body">FX conversion posted</text><text x="287" y="790" class="body">+¥535.00</text>
  <rect x="0" y="812" width="390" height="32" fill="#FFFFFF"/><text x="31" y="832" class="navon">Home</text><text x="103" y="832" class="nav">QR</text><text x="162" y="832" class="nav">Activity</text><text x="247" y="832" class="nav">Support</text><text x="333" y="832" class="nav">Me</text>
</svg>